<svg width="32" height="32" viewBox="0 0 32 32" fill="none" xmlns="http://www.w3.org/2000/svg">
<rect width="32" height="32" rx="16" fill="#F2F2F2"/>
<g clip-path="url(#clip0_482_7721)">
<path d="M12.8334 21C11.9167 21 11.175 21.75 11.175 22.6667C11.175 23.5834 11.9167 24.3334 12.8334 24.3334C13.75 24.3334 14.5 23.5834 14.5 22.6667C14.5 21.75 13.75 21 12.8334 21ZM21.1667 21C20.25 21 19.5084 21.75 19.5084 22.6667C19.5084 23.5834 20.25 24.3334 21.1667 24.3334C22.0834 24.3334 22.8334 23.5834 22.8334 22.6667C22.8334 21.75 22.0834 21 21.1667 21ZM19.9584 16.8334C20.5834 16.8334 21.1334 16.4917 21.4167 15.975L24.4 10.5667C24.7084 10.0167 24.3084 9.33335 23.675 9.33335H11.3417L10.5584 7.66669H7.83337V9.33335H9.50004L12.5 15.6584L11.375 17.6917C10.7667 18.8084 11.5667 20.1667 12.8334 20.1667H22.8334V18.5H12.8334L13.75 16.8334H19.9584ZM12.1334 11H22.2584L19.9584 15.1667H14.1084L12.1334 11Z" fill="#323232"/>
</g>
<defs>
<clipPath id="clip0_482_7721">
<rect width="20" height="20" fill="white" transform="translate(7 6)"/>
</clipPath>
</defs>
</svg>
